<svg xmlns="http://www.w3.org/2000/svg" viewBox="0 0 32 32" fill="none">
  <defs>
    <linearGradient id="bg" x1="4" y1="4" x2="28" y2="28" gradientUnits="userSpaceOnUse">
      <stop stop-color="#56B6C2"/>
      <stop offset="1" stop-color="#3F97A3"/>
    </linearGradient>
  </defs>
  <rect width="32" height="32" rx="7" fill="url(#bg)"/>
  <path fill="#fff" d="M20.2 11.1c0-1.9-1.6-3.4-4.6-3.4-2.8 0-4.7 1.2-4.7 3.3 0 1.5.9 2.4 3.1 3l2.4.6c3.8.9 5.7 2.4 5.7 5.5 0 3.5-2.8 5.6-7.2 5.6-4.5 0-7.3-2.1-7.5-5.5h3.6c.2 1.7 1.6 2.6 3.9 2.6 2.4 0 3.8-1 3.8-2.7 0-1.5-.9-2.3-3.2-2.9l-2.3-.6c-3.7-.9-5.5-2.3-5.5-5.3 0-3.3 2.6-5.2 6.8-5.2 4.1 0 6.7 1.9 6.9 5.1h-3.5c-.2-1.5-1.4-2.3-3.4-2.3-2 0-3.3.9-3.3 2.4z"/>
</svg>
